<?xml version="1.0" encoding="iso-8859-1"?>
<!-- Uploaded to: SVG Repo, www.svgrepo.com, Generator: SVG Repo Mixer Tools -->
<!DOCTYPE svg PUBLIC "-//W3C//DTD SVG 1.1//EN" "http://www.w3.org/Graphics/SVG/1.1/DTD/svg11.dtd">
<svg fill="#000000" version="1.1" id="Capa_1" xmlns="http://www.w3.org/2000/svg" xmlns:xlink="http://www.w3.org/1999/xlink" 
	 width="800px" height="800px" viewBox="0 0 48.841 48.841"
	 xml:space="preserve">
<g>
	<g>
		<path d="M4.675,4.675h13.587V0.001H2.337C1.046,0.001,0,1.048,0,2.338v16h4.674L4.675,4.675L4.675,4.675z"/>
		<path d="M4.675,44.166V29.084H0.001v17.419c0,1.291,1.046,2.337,2.337,2.337h15.924v-4.674H4.675z"/>
		<path d="M44.167,44.166h-15.16v4.674h17.497c1.291,0,2.337-1.046,2.337-2.337V29.084h-4.674V44.166z"/>
		<path d="M44.167,4.675v13.664h4.674v-16c0-1.291-1.046-2.337-2.337-2.337H29.007v4.674L44.167,4.675L44.167,4.675z"/>
	</g>
</g>
</svg>